<?plantuml 1.2026.1beta5?><svg xmlns="http://www.w3.org/2000/svg" xmlns:xlink="http://www.w3.org/1999/xlink" contentStyleType="text/css" data-diagram-type="CLASS" height="866px" preserveAspectRatio="none" style="width:1093px;height:866px;background:#FFFFFF;" version="1.1" viewBox="0 0 1093 866" width="1093px" zoomAndPan="magnify"><defs/><g><!--class SessionManager--><g class="entity" data-qualified-name="SessionManager" data-source-line="13" id="ent0002"><rect fill="#FFFFFF" height="143.7813" rx="2.5" ry="2.5" style="stroke:#000000;stroke-width:0.5;" width="343.7324" x="90.89" y="7"/><ellipse cx="209.5638" cy="22" fill="#ADD1B2" rx="10" ry="10" style="stroke:#181818;stroke-width:1;"/><path d="M211.392,26.25 Q210.9857,26.4531 210.5326,26.5625 Q210.0795,26.6719 209.5951,26.6719 Q207.8138,26.6719 206.8763,25.5156 Q205.9545,24.3438 205.9545,22.1406 Q205.9545,19.9219 206.8763,18.7656 Q207.8138,17.5938 209.5951,17.5938 Q210.0795,17.5938 210.5326,17.7031 Q211.0013,17.7969 211.392,18.0156 L211.392,19.9375 Q210.9545,19.5313 210.5326,19.3438 Q210.1107,19.1406 209.6732,19.1406 Q208.7201,19.1406 208.2357,19.9063 Q207.7513,20.6563 207.7513,22.1406 Q207.7513,23.6094 208.2357,24.3594 Q208.7201,25.1094 209.6732,25.1094 Q210.1107,25.1094 210.5326,24.9219 Q210.9545,24.7344 211.392,24.3281 L211.392,26.25 Z " fill="#000000"/><text fill="#000000" font-family="sans-serif" font-size="12" lengthAdjust="spacing" textLength="98.3848" x="228.5638" y="26.1543">SessionManager</text><line style="stroke:#000000;stroke-width:0.5;" x1="91.89" x2="433.6224" y1="37" y2="37"/><g data-visibility-modifier="PRIVATE_FIELD"><rect fill="none" height="6" style="stroke:#C82930;stroke-width:1;" width="6" x="98.89" y="46.4844"/></g><text fill="#000000" font-family="sans-serif" font-size="12" lengthAdjust="spacing" textLength="86.2207" x="109.89" y="52.1387">sessions : Dict</text><g data-visibility-modifier="PRIVATE_FIELD"><rect fill="none" height="6" style="stroke:#C82930;stroke-width:1;" width="6" x="98.89" y="60.4531"/></g><text fill="#000000" font-family="sans-serif" font-size="12" lengthAdjust="spacing" textLength="179.0742" x="109.89" y="66.1074">session_timeout_minutes : int</text><line style="stroke:#000000;stroke-width:0.5;" x1="91.89" x2="433.6224" y1="72.9375" y2="72.9375"/><g data-visibility-modifier="PUBLIC_METHOD"><ellipse cx="101.89" cy="85.4219" fill="#84BE84" rx="3" ry="3" style="stroke:#038048;stroke-width:1;"/></g><text fill="#000000" font-family="sans-serif" font-size="12" lengthAdjust="spacing" textLength="155.5957" x="109.89" y="88.0762">create_session() : Session</text><g data-visibility-modifier="PUBLIC_METHOD"><ellipse cx="101.89" cy="99.3906" fill="#84BE84" rx="3" ry="3" style="stroke:#038048;stroke-width:1;"/></g><text fill="#000000" font-family="sans-serif" font-size="12" lengthAdjust="spacing" textLength="225.8789" x="109.89" y="102.0449">get_session(session_id : str) : Session</text><g data-visibility-modifier="PUBLIC_METHOD"><ellipse cx="101.89" cy="113.3594" fill="#84BE84" rx="3" ry="3" style="stroke:#038048;stroke-width:1;"/></g><text fill="#000000" font-family="sans-serif" font-size="12" lengthAdjust="spacing" textLength="318.7324" x="109.89" y="116.0137">add_user_to_session(session_id : str, role : str) : User</text><g data-visibility-modifier="PUBLIC_METHOD"><ellipse cx="101.89" cy="127.3281" fill="#84BE84" rx="3" ry="3" style="stroke:#038048;stroke-width:1;"/></g><text fill="#000000" font-family="sans-serif" font-size="12" lengthAdjust="spacing" textLength="244.875" x="109.89" y="129.9824">terminate_session(session_id : str) : void</text><g data-visibility-modifier="PUBLIC_METHOD"><ellipse cx="101.89" cy="141.2969" fill="#84BE84" rx="3" ry="3" style="stroke:#038048;stroke-width:1;"/></g><text fill="#000000" font-family="sans-serif" font-size="12" lengthAdjust="spacing" textLength="150.3047" x="109.89" y="143.9512">get_session_stats() : Dict</text></g><!--class Session--><g class="entity" data-qualified-name="Session" data-source-line="23" id="ent0003"><rect fill="#FFFFFF" height="227.5938" rx="2.5" ry="2.5" style="stroke:#000000;stroke-width:0.5;" width="258.584" x="133.47" y="210.79"/><ellipse cx="235.8694" cy="225.79" fill="#ADD1B2" rx="10" ry="10" style="stroke:#181818;stroke-width:1;"/><path d="M237.6975,230.04 Q237.2913,230.2431 236.8382,230.3525 Q236.385,230.4619 235.9007,230.4619 Q234.1194,230.4619 233.1819,229.3056 Q232.26,228.1337 232.26,225.9306 Q232.26,223.7119 233.1819,222.5556 Q234.1194,221.3837 235.9007,221.3837 Q236.385,221.3837 236.8382,221.4931 Q237.3069,221.5869 237.6975,221.8056 L237.6975,223.7275 Q237.26,223.3212 236.8382,223.1337 Q236.4163,222.9306 235.9788,222.9306 Q235.0257,222.9306 234.5413,223.6962 Q234.0569,224.4462 234.0569,225.9306 Q234.0569,227.3994 234.5413,228.1494 Q235.0257,228.8994 235.9788,228.8994 Q236.4163,228.8994 236.8382,228.7119 Q237.26,228.5244 237.6975,228.1181 L237.6975,230.04 Z " fill="#000000"/><text fill="#000000" font-family="sans-serif" font-size="12" lengthAdjust="spacing" textLength="45.7852" x="254.8694" y="229.9443">Session</text><line style="stroke:#000000;stroke-width:0.5;" x1="134.47" x2="391.054" y1="240.79" y2="240.79"/><g data-visibility-modifier="PUBLIC_FIELD"><ellipse cx="144.47" cy="253.2744" fill="none" rx="3" ry="3" style="stroke:#038048;stroke-width:1;"/></g><text fill="#000000" font-family="sans-serif" font-size="12" lengthAdjust="spacing" textLength="88.9336" x="152.47" y="255.9287">session_id : str</text><g data-visibility-modifier="PUBLIC_FIELD"><ellipse cx="144.47" cy="267.2431" fill="none" rx="3" ry="3" style="stroke:#038048;stroke-width:1;"/></g><text fill="#000000" font-family="sans-serif" font-size="12" lengthAdjust="spacing" textLength="67.9746" x="152.47" y="269.8974">users : Dict</text><g data-visibility-modifier="PUBLIC_FIELD"><ellipse cx="144.47" cy="281.2119" fill="none" rx="3" ry="3" style="stroke:#038048;stroke-width:1;"/></g><text fill="#000000" font-family="sans-serif" font-size="12" lengthAdjust="spacing" textLength="132.5684" x="152.47" y="283.8662">status : SessionStatus</text><g data-visibility-modifier="PUBLIC_FIELD"><ellipse cx="144.47" cy="295.1806" fill="none" rx="3" ry="3" style="stroke:#038048;stroke-width:1;"/></g><text fill="#000000" font-family="sans-serif" font-size="12" lengthAdjust="spacing" textLength="135.5918" x="152.47" y="297.8349">bb84_data : BB84Data</text><g data-visibility-modifier="PUBLIC_FIELD"><ellipse cx="144.47" cy="309.1494" fill="none" rx="3" ry="3" style="stroke:#038048;stroke-width:1;"/></g><text fill="#000000" font-family="sans-serif" font-size="12" lengthAdjust="spacing" textLength="186.252" x="152.47" y="311.8037">crypto_session : CryptoSession</text><g data-visibility-modifier="PUBLIC_FIELD"><ellipse cx="144.47" cy="323.1181" fill="none" rx="3" ry="3" style="stroke:#038048;stroke-width:1;"/></g><text fill="#000000" font-family="sans-serif" font-size="12" lengthAdjust="spacing" textLength="92.8301" x="152.47" y="325.7724">messages : List</text><g data-visibility-modifier="PUBLIC_FIELD"><ellipse cx="144.47" cy="337.0869" fill="none" rx="3" ry="3" style="stroke:#038048;stroke-width:1;"/></g><text fill="#000000" font-family="sans-serif" font-size="12" lengthAdjust="spacing" textLength="145.9102" x="152.47" y="339.7412">metrics : SessionMetrics</text><line style="stroke:#000000;stroke-width:0.5;" x1="134.47" x2="391.054" y1="346.5712" y2="346.5712"/><g data-visibility-modifier="PUBLIC_METHOD"><ellipse cx="144.47" cy="359.0556" fill="#84BE84" rx="3" ry="3" style="stroke:#038048;stroke-width:1;"/></g><text fill="#000000" font-family="sans-serif" font-size="12" lengthAdjust="spacing" textLength="166.3887" x="152.47" y="361.7099">add_user(user : User) : void</text><g data-visibility-modifier="PUBLIC_METHOD"><ellipse cx="144.47" cy="373.0244" fill="#84BE84" rx="3" ry="3" style="stroke:#038048;stroke-width:1;"/></g><text fill="#000000" font-family="sans-serif" font-size="12" lengthAdjust="spacing" textLength="102.0938" x="152.47" y="375.6787">get_alice() : User</text><g data-visibility-modifier="PUBLIC_METHOD"><ellipse cx="144.47" cy="386.9931" fill="#84BE84" rx="3" ry="3" style="stroke:#038048;stroke-width:1;"/></g><text fill="#000000" font-family="sans-serif" font-size="12" lengthAdjust="spacing" textLength="96.668" x="152.47" y="389.6474">get_bob() : User</text><g data-visibility-modifier="PUBLIC_METHOD"><ellipse cx="144.47" cy="400.9619" fill="#84BE84" rx="3" ry="3" style="stroke:#038048;stroke-width:1;"/></g><text fill="#000000" font-family="sans-serif" font-size="12" lengthAdjust="spacing" textLength="110.8828" x="152.47" y="403.6162">start_bb84() : void</text><g data-visibility-modifier="PUBLIC_METHOD"><ellipse cx="144.47" cy="414.9306" fill="#84BE84" rx="3" ry="3" style="stroke:#038048;stroke-width:1;"/></g><text fill="#000000" font-family="sans-serif" font-size="12" lengthAdjust="spacing" textLength="233.584" x="152.47" y="417.5849">mark_compromised(reason : str) : void</text><g data-visibility-modifier="PUBLIC_METHOD"><ellipse cx="144.47" cy="428.8994" fill="#84BE84" rx="3" ry="3" style="stroke:#038048;stroke-width:1;"/></g><text fill="#000000" font-family="sans-serif" font-size="12" lengthAdjust="spacing" textLength="206.9238" x="152.47" y="431.5537">get_session_health_score() : Tuple</text></g><!--class User--><g class="entity" data-qualified-name="User" data-source-line="39" id="ent0004"><rect fill="#FFFFFF" height="101.875" rx="2.5" ry="2.5" style="stroke:#000000;stroke-width:0.5;" width="145.5156" x="7" y="519.33"/><ellipse cx="62.082" cy="534.33" fill="#ADD1B2" rx="10" ry="10" style="stroke:#181818;stroke-width:1;"/><path d="M63.9102,538.58 Q63.5039,538.7831 63.0508,538.8925 Q62.5977,539.0019 62.1133,539.0019 Q60.332,539.0019 59.3945,537.8456 Q58.4727,536.6738 58.4727,534.4706 Q58.4727,532.2519 59.3945,531.0956 Q60.332,529.9238 62.1133,529.9238 Q62.5977,529.9238 63.0508,530.0331 Q63.5195,530.1269 63.9102,530.3456 L63.9102,532.2675 Q63.4727,531.8613 63.0508,531.6738 Q62.6289,531.4706 62.1914,531.4706 Q61.2383,531.4706 60.7539,532.2363 Q60.2695,532.9863 60.2695,534.4706 Q60.2695,535.9394 60.7539,536.6894 Q61.2383,537.4394 62.1914,537.4394 Q62.6289,537.4394 63.0508,537.2519 Q63.4727,537.0644 63.9102,536.6581 L63.9102,538.58 Z " fill="#000000"/><text fill="#000000" font-family="sans-serif" font-size="12" lengthAdjust="spacing" textLength="27.3516" x="81.082" y="538.4843">User</text><line style="stroke:#000000;stroke-width:0.5;" x1="8" x2="151.5156" y1="549.33" y2="549.33"/><g data-visibility-modifier="PUBLIC_FIELD"><ellipse cx="18" cy="561.8144" fill="none" rx="3" ry="3" style="stroke:#038048;stroke-width:1;"/></g><text fill="#000000" font-family="sans-serif" font-size="12" lengthAdjust="spacing" textLength="70.6875" x="26" y="564.4687">user_id : str</text><g data-visibility-modifier="PUBLIC_FIELD"><ellipse cx="18" cy="575.7831" fill="none" rx="3" ry="3" style="stroke:#038048;stroke-width:1;"/></g><text fill="#000000" font-family="sans-serif" font-size="12" lengthAdjust="spacing" textLength="88.4121" x="26" y="578.4374">role : UserRole</text><g data-visibility-modifier="PUBLIC_FIELD"><ellipse cx="18" cy="589.7519" fill="none" rx="3" ry="3" style="stroke:#038048;stroke-width:1;"/></g><text fill="#000000" font-family="sans-serif" font-size="12" lengthAdjust="spacing" textLength="100.1426" x="26" y="592.4062">connected : bool</text><g data-visibility-modifier="PUBLIC_FIELD"><ellipse cx="18" cy="603.7206" fill="none" rx="3" ry="3" style="stroke:#038048;stroke-width:1;"/></g><text fill="#000000" font-family="sans-serif" font-size="12" lengthAdjust="spacing" textLength="120.5156" x="26" y="606.3749">joined_at : datetime</text><line style="stroke:#000000;stroke-width:0.5;" x1="8" x2="151.5156" y1="613.205" y2="613.205"/></g><!--class BB84Data--><g class="entity" data-qualified-name="BB84Data" data-source-line="46" id="ent0005"><rect fill="#FFFFFF" height="143.7813" rx="2.5" ry="2.5" style="stroke:#000000;stroke-width:0.5;" width="149.8516" x="187.83" y="498.38"/><ellipse cx="228.5892" cy="513.38" fill="#ADD1B2" rx="10" ry="10" style="stroke:#181818;stroke-width:1;"/><path d="M230.4173,517.63 Q230.0111,517.8331 229.5579,517.9425 Q229.1048,518.0519 228.6204,518.0519 Q226.8392,518.0519 225.9017,516.8956 Q224.9798,515.7238 224.9798,513.5206 Q224.9798,511.3019 225.9017,510.1456 Q226.8392,508.9738 228.6204,508.9738 Q229.1048,508.9738 229.5579,509.0831 Q230.0267,509.1769 230.4173,509.3956 L230.4173,511.3175 Q229.9798,510.9113 229.5579,510.7238 Q229.1361,510.5206 228.6986,510.5206 Q227.7454,510.5206 227.2611,511.2863 Q226.7767,512.0363 226.7767,513.5206 Q226.7767,514.9894 227.2611,515.7394 Q227.7454,516.4894 228.6986,516.4894 Q229.1361,516.4894 229.5579,516.3019 Q229.9798,516.1144 230.4173,515.7081 L230.4173,517.63 Z " fill="#000000"/><text fill="#000000" font-family="sans-serif" font-size="12" lengthAdjust="spacing" textLength="60.3867" x="247.5357" y="517.5343">BB84Data</text><line style="stroke:#000000;stroke-width:0.5;" x1="188.83" x2="336.6816" y1="528.38" y2="528.38"/><g data-visibility-modifier="PUBLIC_FIELD"><ellipse cx="198.83" cy="540.8644" fill="none" rx="3" ry="3" style="stroke:#038048;stroke-width:1;"/></g><text fill="#000000" font-family="sans-serif" font-size="12" lengthAdjust="spacing" textLength="88.5586" x="206.83" y="543.5187">alice_bits : List</text><g data-visibility-modifier="PUBLIC_FIELD"><ellipse cx="198.83" cy="554.8331" fill="none" rx="3" ry="3" style="stroke:#038048;stroke-width:1;"/></g><text fill="#000000" font-family="sans-serif" font-size="12" lengthAdjust="spacing" textLength="101.5078" x="206.83" y="557.4874">alice_bases : List</text><g data-visibility-modifier="PUBLIC_FIELD"><ellipse cx="198.83" cy="568.8019" fill="none" rx="3" ry="3" style="stroke:#038048;stroke-width:1;"/></g><text fill="#000000" font-family="sans-serif" font-size="12" lengthAdjust="spacing" textLength="96.082" x="206.83" y="571.4562">bob_bases : List</text><g data-visibility-modifier="PUBLIC_FIELD"><ellipse cx="198.83" cy="582.7706" fill="none" rx="3" ry="3" style="stroke:#038048;stroke-width:1;"/></g><text fill="#000000" font-family="sans-serif" font-size="12" lengthAdjust="spacing" textLength="101.6895" x="206.83" y="585.4249">bob_results : List</text><g data-visibility-modifier="PUBLIC_FIELD"><ellipse cx="198.83" cy="596.7394" fill="none" rx="3" ry="3" style="stroke:#038048;stroke-width:1;"/></g><text fill="#000000" font-family="sans-serif" font-size="12" lengthAdjust="spacing" textLength="66.1816" x="206.83" y="599.3937">qber : float</text><g data-visibility-modifier="PUBLIC_FIELD"><ellipse cx="198.83" cy="610.7081" fill="none" rx="3" ry="3" style="stroke:#038048;stroke-width:1;"/></g><text fill="#000000" font-family="sans-serif" font-size="12" lengthAdjust="spacing" textLength="118.5645" x="206.83" y="613.3624">eve_detected : bool</text><g data-visibility-modifier="PUBLIC_FIELD"><ellipse cx="198.83" cy="624.6769" fill="none" rx="3" ry="3" style="stroke:#038048;stroke-width:1;"/></g><text fill="#000000" font-family="sans-serif" font-size="12" lengthAdjust="spacing" textLength="124.8516" x="206.83" y="627.3312">final_key_length : int</text><line style="stroke:#000000;stroke-width:0.5;" x1="188.83" x2="336.6816" y1="634.1613" y2="634.1613"/></g><!--class CryptoSession--><g class="entity" data-qualified-name="CryptoSession" data-source-line="56" id="ent0006"><rect fill="#FFFFFF" height="115.8438" rx="2.5" ry="2.5" style="stroke:#000000;stroke-width:0.5;" width="467.7988" x="372.86" y="512.35"/><ellipse cx="559.8278" cy="527.35" fill="#ADD1B2" rx="10" ry="10" style="stroke:#181818;stroke-width:1;"/><path d="M561.6559,531.6 Q561.2496,531.8031 560.7965,531.9125 Q560.3434,532.0219 559.859,532.0219 Q558.0778,532.0219 557.1403,530.8656 Q556.2184,529.6938 556.2184,527.4906 Q556.2184,525.2719 557.1403,524.1156 Q558.0778,522.9438 559.859,522.9438 Q560.3434,522.9438 560.7965,523.0531 Q561.2653,523.1469 561.6559,523.3656 L561.6559,525.2875 Q561.2184,524.8813 560.7965,524.6938 Q560.3746,524.4906 559.9371,524.4906 Q558.984,524.4906 558.4996,525.2563 Q558.0153,526.0063 558.0153,527.4906 Q558.0153,528.9594 558.4996,529.7094 Q558.984,530.4594 559.9371,530.4594 Q560.3746,530.4594 560.7965,530.2719 Q561.2184,530.0844 561.6559,529.6781 L561.6559,531.6 Z " fill="#000000"/><text fill="#000000" font-family="sans-serif" font-size="12" lengthAdjust="spacing" textLength="85.8633" x="578.8278" y="531.5043">CryptoSession</text><line style="stroke:#000000;stroke-width:0.5;" x1="373.86" x2="839.6588" y1="542.35" y2="542.35"/><g data-visibility-modifier="PUBLIC_FIELD"><ellipse cx="383.86" cy="554.8344" fill="none" rx="3" ry="3" style="stroke:#038048;stroke-width:1;"/></g><text fill="#000000" font-family="sans-serif" font-size="12" lengthAdjust="spacing" textLength="183.3809" x="391.86" y="557.4887">crypto_service : CryptoService</text><g data-visibility-modifier="PUBLIC_FIELD"><ellipse cx="383.86" cy="568.8031" fill="none" rx="3" ry="3" style="stroke:#038048;stroke-width:1;"/></g><text fill="#000000" font-family="sans-serif" font-size="12" lengthAdjust="spacing" textLength="166.3242" x="391.86" y="571.4574">derived_keys : DerivedKeys</text><g data-visibility-modifier="PUBLIC_FIELD"><ellipse cx="383.86" cy="582.7719" fill="none" rx="3" ry="3" style="stroke:#038048;stroke-width:1;"/></g><text fill="#000000" font-family="sans-serif" font-size="12" lengthAdjust="spacing" textLength="133.5762" x="391.86" y="585.4262">key_established : bool</text><line style="stroke:#000000;stroke-width:0.5;" x1="373.86" x2="839.6588" y1="592.2563" y2="592.2563"/><g data-visibility-modifier="PUBLIC_METHOD"><ellipse cx="383.86" cy="604.7406" fill="#84BE84" rx="3" ry="3" style="stroke:#038048;stroke-width:1;"/></g><text fill="#000000" font-family="sans-serif" font-size="12" lengthAdjust="spacing" textLength="442.7988" x="391.86" y="607.3949">initialize_keys(master_key : bytes, session_id : str, pqc_key : bytes) : void</text><g data-visibility-modifier="PUBLIC_METHOD"><ellipse cx="383.86" cy="618.7094" fill="#84BE84" rx="3" ry="3" style="stroke:#038048;stroke-width:1;"/></g><text fill="#000000" font-family="sans-serif" font-size="12" lengthAdjust="spacing" textLength="285.2168" x="391.86" y="621.3637">needs_key_rotation(max_age_hours : int) : bool</text></g><!--class BB84Engine--><g class="entity" data-qualified-name="BB84Engine" data-source-line="64" id="ent0007"><rect fill="#FFFFFF" height="129.8125" rx="2.5" ry="2.5" style="stroke:#000000;stroke-width:0.5;" width="616.8203" x="469.35" y="13.99"/><ellipse cx="737.3295" cy="28.99" fill="#ADD1B2" rx="10" ry="10" style="stroke:#181818;stroke-width:1;"/><path d="M739.1576,33.24 Q738.7514,33.4431 738.2982,33.5525 Q737.8451,33.6619 737.3607,33.6619 Q735.5795,33.6619 734.642,32.5056 Q733.7201,31.3338 733.7201,29.1306 Q733.7201,26.9119 734.642,25.7556 Q735.5795,24.5838 737.3607,24.5838 Q737.8451,24.5838 738.2982,24.6931 Q738.767,24.7869 739.1576,25.0056 L739.1576,26.9275 Q738.7201,26.5213 738.2982,26.3338 Q737.8764,26.1306 737.4389,26.1306 Q736.4857,26.1306 736.0014,26.8963 Q735.517,27.6463 735.517,29.1306 Q735.517,30.5994 736.0014,31.3494 Q736.4857,32.0994 737.4389,32.0994 Q737.8764,32.0994 738.2982,31.9119 Q738.7201,31.7244 739.1576,31.3181 L739.1576,33.24 Z " fill="#000000"/><text fill="#000000" font-family="sans-serif" font-size="12" lengthAdjust="spacing" textLength="72.8613" x="756.3295" y="33.1443">BB84Engine</text><line style="stroke:#000000;stroke-width:0.5;" x1="470.35" x2="1085.1703" y1="43.99" y2="43.99"/><g data-visibility-modifier="PRIVATE_FIELD"><rect fill="none" height="6" style="stroke:#C82930;stroke-width:1;" width="6" x="477.35" y="53.4744"/></g><text fill="#000000" font-family="sans-serif" font-size="12" lengthAdjust="spacing" textLength="128.959" x="488.35" y="59.1287">qber_threshold : float</text><g data-visibility-modifier="PRIVATE_FIELD"><rect fill="none" height="6" style="stroke:#C82930;stroke-width:1;" width="6" x="477.35" y="67.4431"/></g><text fill="#000000" font-family="sans-serif" font-size="12" lengthAdjust="spacing" textLength="98.0156" x="488.35" y="73.0974">final_key : bytes</text><line style="stroke:#000000;stroke-width:0.5;" x1="470.35" x2="1085.1703" y1="79.9275" y2="79.9275"/><g data-visibility-modifier="PUBLIC_METHOD"><ellipse cx="480.35" cy="92.4119" fill="#84BE84" rx="3" ry="3" style="stroke:#038048;stroke-width:1;"/></g><text fill="#000000" font-family="sans-serif" font-size="12" lengthAdjust="spacing" textLength="591.8203" x="488.35" y="95.0662">run_simulation(n_bits : int, test_fraction : float, eve_params : dict, eve_module : EveModule) : void</text><g data-visibility-modifier="PUBLIC_METHOD"><ellipse cx="480.35" cy="106.3806" fill="#84BE84" rx="3" ry="3" style="stroke:#038048;stroke-width:1;"/></g><text fill="#000000" font-family="sans-serif" font-size="12" lengthAdjust="spacing" textLength="133.084" x="488.35" y="109.0349">get_final_key() : bytes</text><g data-visibility-modifier="PUBLIC_METHOD"><ellipse cx="480.35" cy="120.3494" fill="#84BE84" rx="3" ry="3" style="stroke:#038048;stroke-width:1;"/></g><text fill="#000000" font-family="sans-serif" font-size="12" lengthAdjust="spacing" textLength="103.4648" x="488.35" y="123.0037">clear_key() : void</text><g data-visibility-modifier="PUBLIC_METHOD"><ellipse cx="480.35" cy="134.3181" fill="#84BE84" rx="3" ry="3" style="stroke:#038048;stroke-width:1;"/></g><text fill="#000000" font-family="sans-serif" font-size="12" lengthAdjust="spacing" textLength="278.918" x="488.35" y="136.9724">get_theoretical_qber(eve_params : dict) : float</text></g><!--class EveModule--><g class="entity" data-qualified-name="EveModule" data-source-line="73" id="ent0008"><rect fill="#FFFFFF" height="115.8438" rx="2.5" ry="2.5" style="stroke:#000000;stroke-width:0.5;" width="362.4063" x="596.55" y="266.66"/><ellipse cx="740.9025" cy="281.66" fill="#ADD1B2" rx="10" ry="10" style="stroke:#181818;stroke-width:1;"/><path d="M742.7307,285.91 Q742.3244,286.1131 741.8713,286.2225 Q741.4182,286.3319 740.9338,286.3319 Q739.1525,286.3319 738.215,285.1756 Q737.2932,284.0037 737.2932,281.8006 Q737.2932,279.5819 738.215,278.4256 Q739.1525,277.2537 740.9338,277.2537 Q741.4182,277.2537 741.8713,277.3631 Q742.34,277.4569 742.7307,277.6756 L742.7307,279.5975 Q742.2932,279.1912 741.8713,279.0037 Q741.4494,278.8006 741.0119,278.8006 Q740.0588,278.8006 739.5744,279.5662 Q739.09,280.3162 739.09,281.8006 Q739.09,283.2694 739.5744,284.0194 Q740.0588,284.7694 741.0119,284.7694 Q741.4494,284.7694 741.8713,284.5819 Q742.2932,284.3944 742.7307,283.9881 L742.7307,285.91 Z " fill="#000000"/><text fill="#000000" font-family="sans-serif" font-size="12" lengthAdjust="spacing" textLength="65.7012" x="759.9025" y="285.8143">EveModule</text><line style="stroke:#000000;stroke-width:0.5;" x1="597.55" x2="957.9563" y1="296.66" y2="296.66"/><g data-visibility-modifier="PRIVATE_FIELD"><rect fill="none" height="6" style="stroke:#C82930;stroke-width:1;" width="6" x="604.55" y="306.1444"/></g><text fill="#000000" font-family="sans-serif" font-size="12" lengthAdjust="spacing" textLength="146.6602" x="615.55" y="311.7987">simulator : AerSimulator</text><g data-visibility-modifier="PRIVATE_FIELD"><rect fill="none" height="6" style="stroke:#C82930;stroke-width:1;" width="6" x="604.55" y="320.1131"/></g><text fill="#000000" font-family="sans-serif" font-size="12" lengthAdjust="spacing" textLength="94.6055" x="615.55" y="325.7674">attack_log : List</text><line style="stroke:#000000;stroke-width:0.5;" x1="597.55" x2="957.9563" y1="332.5975" y2="332.5975"/><g data-visibility-modifier="PUBLIC_METHOD"><ellipse cx="607.55" cy="345.0819" fill="#84BE84" rx="3" ry="3" style="stroke:#038048;stroke-width:1;"/></g><text fill="#000000" font-family="sans-serif" font-size="12" lengthAdjust="spacing" textLength="337.4063" x="615.55" y="347.7362">apply_attack(qubits_data : dict, eve_params : dict) : List</text><g data-visibility-modifier="PUBLIC_METHOD"><ellipse cx="607.55" cy="359.0506" fill="#84BE84" rx="3" ry="3" style="stroke:#038048;stroke-width:1;"/></g><text fill="#000000" font-family="sans-serif" font-size="12" lengthAdjust="spacing" textLength="167.7715" x="615.55" y="361.7049">get_attack_statistics() : Dict</text><g data-visibility-modifier="PUBLIC_METHOD"><ellipse cx="607.55" cy="373.0194" fill="#84BE84" rx="3" ry="3" style="stroke:#038048;stroke-width:1;"/></g><text fill="#000000" font-family="sans-serif" font-size="12" lengthAdjust="spacing" textLength="143.9883" x="615.55" y="375.6737">clear_attack_log() : void</text></g><!--class CryptoService--><g class="entity" data-qualified-name="CryptoService" data-source-line="81" id="ent0009"><rect fill="#FFFFFF" height="157.75" rx="2.5" ry="2.5" style="stroke:#000000;stroke-width:0.5;" width="453.3672" x="380.07" y="702.16"/><ellipse cx="560.5397" cy="717.16" fill="#ADD1B2" rx="10" ry="10" style="stroke:#181818;stroke-width:1;"/><path d="M562.3679,721.41 Q561.9616,721.6131 561.5085,721.7225 Q561.0554,721.8319 560.571,721.8319 Q558.7897,721.8319 557.8522,720.6756 Q556.9304,719.5038 556.9304,717.3006 Q556.9304,715.0819 557.8522,713.9256 Q558.7897,712.7538 560.571,712.7538 Q561.0554,712.7538 561.5085,712.8631 Q561.9772,712.9569 562.3679,713.1756 L562.3679,715.0975 Q561.9304,714.6913 561.5085,714.5038 Q561.0866,714.3006 560.6491,714.3006 Q559.696,714.3006 559.2116,715.0663 Q558.7272,715.8163 558.7272,717.3006 Q558.7272,718.7694 559.2116,719.5194 Q559.696,720.2694 560.6491,720.2694 Q561.0866,720.2694 561.5085,720.0819 Q561.9304,719.8944 562.3679,719.4881 L562.3679,721.41 Z " fill="#000000"/><text fill="#000000" font-family="sans-serif" font-size="12" lengthAdjust="spacing" textLength="84.4277" x="579.5397" y="721.3143">CryptoService</text><line style="stroke:#000000;stroke-width:0.5;" x1="381.07" x2="832.4372" y1="732.16" y2="732.16"/><g data-visibility-modifier="PRIVATE_FIELD"><rect fill="none" height="6" style="stroke:#C82930;stroke-width:1;" width="6" x="388.07" y="741.6444"/></g><text fill="#000000" font-family="sans-serif" font-size="12" lengthAdjust="spacing" textLength="166.3242" x="399.07" y="747.2987">derived_keys : DerivedKeys</text><g data-visibility-modifier="PRIVATE_FIELD"><rect fill="none" height="6" style="stroke:#C82930;stroke-width:1;" width="6" x="388.07" y="755.6131"/></g><text fill="#000000" font-family="sans-serif" font-size="12" lengthAdjust="spacing" textLength="160.6699" x="399.07" y="761.2674">message_seq_counter : int</text><g data-visibility-modifier="PRIVATE_FIELD"><rect fill="none" height="6" style="stroke:#C82930;stroke-width:1;" width="6" x="388.07" y="769.5819"/></g><text fill="#000000" font-family="sans-serif" font-size="12" lengthAdjust="spacing" textLength="125.0156" x="399.07" y="775.2362">file_seq_counter : int</text><line style="stroke:#000000;stroke-width:0.5;" x1="381.07" x2="832.4372" y1="782.0663" y2="782.0663"/><g data-visibility-modifier="PUBLIC_METHOD"><ellipse cx="391.07" cy="794.5506" fill="#84BE84" rx="3" ry="3" style="stroke:#038048;stroke-width:1;"/></g><text fill="#000000" font-family="sans-serif" font-size="12" lengthAdjust="spacing" textLength="379.1133" x="399.07" y="797.2049">derive_keys(master_key : bytes, session_id : str) : DerivedKeys</text><g data-visibility-modifier="PUBLIC_METHOD"><ellipse cx="391.07" cy="808.5194" fill="#84BE84" rx="3" ry="3" style="stroke:#038048;stroke-width:1;"/></g><text fill="#000000" font-family="sans-serif" font-size="12" lengthAdjust="spacing" textLength="347.0098" x="399.07" y="811.1737">encrypt_message_otp(plaintext : str) : EncryptedMessage</text><g data-visibility-modifier="PUBLIC_METHOD"><ellipse cx="391.07" cy="822.4881" fill="#84BE84" rx="3" ry="3" style="stroke:#038048;stroke-width:1;"/></g><text fill="#000000" font-family="sans-serif" font-size="12" lengthAdjust="spacing" textLength="386.3848" x="399.07" y="825.1424">decrypt_message_otp(encrypted_msg : EncryptedMessage) : str</text><g data-visibility-modifier="PUBLIC_METHOD"><ellipse cx="391.07" cy="836.4569" fill="#84BE84" rx="3" ry="3" style="stroke:#038048;stroke-width:1;"/></g><text fill="#000000" font-family="sans-serif" font-size="12" lengthAdjust="spacing" textLength="428.3672" x="399.07" y="839.1112">encrypt_file_xchacha20(file_data : bytes, filename : str) : EncryptedFile</text><g data-visibility-modifier="PUBLIC_METHOD"><ellipse cx="391.07" cy="850.4256" fill="#84BE84" rx="3" ry="3" style="stroke:#038048;stroke-width:1;"/></g><text fill="#000000" font-family="sans-serif" font-size="12" lengthAdjust="spacing" textLength="375.0059" x="399.07" y="853.0799">decrypt_file_xchacha20(encrypted_file : EncryptedFile) : Tuple</text></g><!--link SessionManager to Session--><g class="link" data-entity-1="ent0002" data-entity-2="ent0003" data-link-type="crowfoot" data-source-line="92" id="lnk10"><path codeLine="92" d="M262.76,159.03 C262.76,177.72 262.76,172.34 262.76,192.63" fill="none" id="SessionManager-Session" style="stroke:#000000;stroke-width:1;"/><line style="stroke:#000000;stroke-width:1;" x1="258.76" x2="266.76" y1="155.03" y2="155.03"/><line style="stroke:#000000;stroke-width:1;" x1="258.76" x2="266.76" y1="158.03" y2="158.03"/><line style="stroke:#000000;stroke-width:1;" x1="262.76" x2="262.76" y1="159.03" y2="151.03"/><line style="stroke:#000000;stroke-width:1;" x1="262.76" x2="268.76" y1="202.63" y2="210.63"/><line style="stroke:#000000;stroke-width:1;" x1="262.76" x2="256.76" y1="202.63" y2="210.63"/><line style="stroke:#000000;stroke-width:1;" x1="262.76" x2="262.76" y1="202.63" y2="210.63"/><ellipse cx="262.76" cy="196.63" fill="none" rx="4" ry="4" style="stroke:#000000;stroke-width:1;"/></g><!--link Session to User--><g class="link" data-entity-1="ent0003" data-entity-2="ent0004" data-link-type="crowfoot" data-source-line="93" id="lnk11"><path codeLine="93" d="M172.8853,445.2564 C151.7853,473.3464 145.8499,481.2574 128.3499,504.5574" fill="none" id="Session-User" style="stroke:#000000;stroke-width:1;"/><line style="stroke:#000000;stroke-width:1;" x1="172.0894" x2="178.4859" y1="439.6559" y2="444.4606"/><line style="stroke:#000000;stroke-width:1;" x1="170.2876" x2="176.6841" y1="442.0545" y2="446.8593"/><line style="stroke:#000000;stroke-width:1;" x1="172.8853" x2="177.69" y1="445.2564" y2="438.86"/><line style="stroke:#000000;stroke-width:1;" x1="122.3444" x2="122.3375" y1="512.5533" y2="522.5533"/><line style="stroke:#000000;stroke-width:1;" x1="122.3444" x2="112.7425" y1="512.5533" y2="515.3467"/><line style="stroke:#000000;stroke-width:1;" x1="122.3444" x2="117.54" y1="512.5533" y2="518.95"/><ellipse cx="125.9477" cy="507.7558" fill="none" rx="4" ry="4" style="stroke:#000000;stroke-width:1;"/></g><!--link Session to BB84Data--><g class="link" data-entity-1="ent0003" data-entity-2="ent0005" data-link-type="association" data-source-line="94" id="lnk12"><path codeLine="94" d="M262.76,446.86 C262.76,467 262.76,471.45 262.76,490" fill="none" id="Session-BB84Data" style="stroke:#000000;stroke-width:1;"/><line style="stroke:#000000;stroke-width:1;" x1="258.76" x2="266.76" y1="442.86" y2="442.86"/><line style="stroke:#000000;stroke-width:1;" x1="258.76" x2="266.76" y1="445.86" y2="445.86"/><line style="stroke:#000000;stroke-width:1;" x1="262.76" x2="262.76" y1="446.86" y2="438.86"/><line style="stroke:#000000;stroke-width:1;" x1="266.76" x2="258.76" y1="494" y2="494"/><line style="stroke:#000000;stroke-width:1;" x1="266.76" x2="258.76" y1="491" y2="491"/><line style="stroke:#000000;stroke-width:1;" x1="262.76" x2="262.76" y1="490" y2="498"/></g><!--link Session to CryptoSession--><g class="link" data-entity-1="ent0003" data-entity-2="ent0006" data-link-type="association" data-source-line="95" id="lnk13"><path codeLine="95" d="M398.8474,421.9852 C443.6974,453.7652 479.6017,479.196 519.4017,507.386" fill="none" id="Session-CryptoSession" style="stroke:#000000;stroke-width:1;"/><line style="stroke:#000000;stroke-width:1;" x1="393.2711" x2="397.8963" y1="422.9363" y2="416.4089"/><line style="stroke:#000000;stroke-width:1;" x1="395.7189" x2="400.3441" y1="424.6708" y2="418.1434"/><line style="stroke:#000000;stroke-width:1;" x1="398.8474" x2="392.32" y1="421.9852" y2="417.36"/><line style="stroke:#000000;stroke-width:1;" x1="524.9778" x2="520.3539" y1="506.4339" y2="512.9622"/><line style="stroke:#000000;stroke-width:1;" x1="522.5297" x2="517.9057" y1="504.6999" y2="511.2282"/><line style="stroke:#000000;stroke-width:1;" x1="519.4017" x2="525.93" y1="507.386" y2="512.01"/></g><!--link BB84Engine to EveModule--><g class="link" data-entity-1="ent0007" data-entity-2="ent0008" data-link-type="dependency" data-source-line="96" id="lnk14"><path codeLine="96" d="M777.76,144.24 C777.76,182.17 777.76,223.75 777.76,260.37" fill="none" id="BB84Engine-to-EveModule" style="stroke:#000000;stroke-width:1;stroke-dasharray:7,7;"/><polygon fill="#000000" points="777.76,266.37,781.76,257.37,777.76,261.37,773.76,257.37,777.76,266.37" style="stroke:#000000;stroke-width:1;"/></g><!--link CryptoSession to CryptoService--><g class="link" data-entity-1="ent0006" data-entity-2="ent0009" data-link-type="dependency" data-source-line="97" id="lnk15"><path codeLine="97" d="M606.76,628.59 C606.76,651.16 606.76,671.45 606.76,695.73" fill="none" id="CryptoSession-to-CryptoService" style="stroke:#000000;stroke-width:1;"/><polygon fill="#000000" points="606.76,701.73,610.76,692.73,606.76,696.73,602.76,692.73,606.76,701.73" style="stroke:#000000;stroke-width:1;"/></g><?plantuml-src ZLPBRzGm4BxlhmYthDgj0750791eQIzGa5WG4XVBIQORKyTExSdIGldlpDXvEDa58LLL_CtxyynudrHmemnaLny_VDv-ovuzN_bRPLhfP9EHI7OQhwp1hVevw2GAfPRUPxzMMNOkozkTivsfBgosBljQAmJ6hQl0HUnSazBgTs8ldRC_WlrSOuMspT1cXKMqb8ToKAAoPhMA4RVWFHslfP4xSC71naVCPw-ojwh411Ae6h0TYaQP3e4rb665azA1H12zNhucIU-QfJl0KJIuKXNfU7GBLLbLelFW1Dg_cfncpcgOpB-GFjiYE4eipUDOiBrLrI8fuL6Y3rc7Ydylw0cyd2oTCSQf9aITiAFEJoLjmvabHV7oXQWaIXAUdxzyyPO-8tCFxLGh2Iy2a53Iq2VT3djzhpn629qgapZN4KWPpFbVpywoRgbL2NdA7QE5BMOO5UC8fSJpr44ZtQqeRTCwsoWFLKvtxqFg_s2u1gcn5hwqBWR-tBKQ9gOvPgGvt7xASN_PhF69FWDfrXXgP62jmbhDs7TBqrS9YOGHpy2zElaVA8ynGlsYK9YIseFIpwWcKevY3ZnDT8hU5O7l6srbECCUH0Mup9EMXDJY5Xw41hF3kX-YCTFP_STqnnvnUqenwP5mPWrQ3MfFrPFRq8xn-8vEBELWGBTPQENhMJBAA5HK-4y8fdaZFKqHVxFI0ytuQNOuVkrTcQgaTsu0AX-gSvPwduUmaVU2-bVKjdFzobWFASpkvzBiU8669SHa2go9vThgAg5rC_8tX0yzqj4GgwRJCQGPxfPYdMQaW-B6oR3v1bUd6TzFs9wiMD40HwYnLHSQxd8Fr-5xsTDZ1g6HnnnA3TADS6g0DL3Reoh9Z0lB3qAlnmf7HiRm_LQErLbkiJVWjiEHPHAHrhtGTfUsSzlg1n55-Lt7X0pxPohs88d1Eco9w9Pt6g6qNgODEPOxXPwgFcZbsBQXZ7yswgPVTTJfTxHXEeDXek8RGnUlZqlwxl__3buVZWYOC6HYoC1YcxTQKW2unydgCgf1THtrOlH3KnZqHEDtH-pMqteR8eVoxijQqj_pftauzlVLby6GaGqSIUTAwLak2sTJEYnO6ixMyU8NmUFZPcD_ZI_qi9PwEBmKAVRuE3rk2tp-hYNpVdRsUchsrNpzRJQlvrtq1m00?></g></svg>